<svg id="Layer_1" enable-background="new 0 0 512 512" height="512" viewBox="0 0 512 512" width="512" xmlns="http://www.w3.org/2000/svg"><g><g><path d="m103.5 236.5h10v-35h-10c-8.284 0-15 6.716-15 15v5c0 8.284 6.716 15 15 15z" fill="#e2d6d1"/><path d="m299.5 332.5v55c0 2.761 2.239 5 5 5h50c44.183 0 80 35.817 80 80v12c0 11.046-8.954 20-20 20h-317c-11.046 0-20-8.954-20-20v-12c0-44.183 35.817-80 80-80h50c2.761 0 5-2.239 5-5v-55z" fill="#f0e5e0"/><path d="m434.5 472.5v12c0 11.05-8.95 20-20 20h-30c11.05 0 20-8.95 20-20v-12c0-44.18-35.82-80-80-80h30c44.18 0 80 35.82 80 80z" fill="#e2d6d1"/><path d="m408.5 236.5h-10v-35h10c8.284 0 15 6.716 15 15v5c0 8.284-6.716 15-15 15z" fill="#e2d6d1"/><path d="m210.543 50.513-11.213-20.93c-5.353-9.992 1.887-22.083 13.223-22.083h86.895c11.336 0 18.575 12.091 13.222 22.083l-11.197 20.902z" fill="#fc8d94"/><path d="m312.67 29.58-11.2 20.91h-30l11.2-20.91c5.35-9.99-1.89-22.08-13.22-22.08h30c11.33 0 18.57 12.09 13.22 22.08z" fill="#fc7585"/><path d="m373.5 156c0-64.893-52.606-117.5-117.5-117.5-64.893 0-117.5 52.606-117.5 117.5v13 71c0 64.893 52.606 117.5 117.5 117.5 64.893 0 117.5-52.607 117.5-117.5z" fill="#faf2f3"/><path d="m373.5 156v84c0 32.44-13.15 61.82-34.42 83.08-21.26 21.27-50.64 34.42-83.08 34.42-5.08 0-10.09-.32-15-.95 26.45-3.37 50.15-15.53 68.08-33.47 21.27-21.26 34.42-50.64 34.42-83.08v-84c0-59.81-44.69-109.18-102.5-116.55 4.91-.63 9.92-.95 15-.95 64.89 0 117.5 52.61 117.5 117.5z" fill="#f0e5e0"/><path d="m386.261 261.653-95.336 40.141c-22.334 9.404-47.516 9.404-69.85 0l-95.336-40.141c-7.416-3.123-12.239-10.386-12.239-18.433v-48.44c0-8.047 4.823-15.31 12.239-18.433l95.336-40.141c22.334-9.404 47.516-9.404 69.85 0l95.336 40.141c7.416 3.123 12.239 10.386 12.239 18.433v48.441c0 8.046-4.823 15.31-12.239 18.432z" fill="#f0e5e0"/><path d="m454.548 470.547-4.143.039c-52.818.503-95.905-42.175-95.905-94.996v-3.138c0-2.743 2.21-4.974 4.952-5l4.143-.039c52.818-.503 95.905 42.175 95.905 94.996v3.138c0 2.743-2.21 4.974-4.952 5z" fill="#6f6571"/><path d="m459.5 462.41v3.14c0 2.74-2.21 4.97-4.95 5l-4.15.04c-7.47.07-14.74-.72-21.72-2.29.52-.79.82-1.74.82-2.75v-3.14c0-45.35-31.77-83.23-74.18-92.71.89-1.34 2.4-2.23 4.13-2.25l4.15-.04c52.81-.5 95.9 42.18 95.9 95z" fill="#5d5360"/><path d="m57.452 470.547 4.143.039c52.818.503 95.905-42.175 95.905-94.996v-3.138c0-2.743-2.21-4.974-4.952-5l-4.143-.039c-52.819-.503-95.905 42.175-95.905 94.996v3.138c0 2.743 2.21 4.974 4.952 5z" fill="#6f6571"/><g fill="#e2d6d1"><path d="m191 253.5c-8.284 0-15-6.716-15-15v-39c0-8.284 6.716-15 15-15 8.284 0 15 6.716 15 15v39c0 8.284-6.716 15-15 15z"/><path d="m321 253.5c-8.284 0-15-6.716-15-15v-39c0-8.284 6.716-15 15-15 8.284 0 15 6.716 15 15v39c0 8.284-6.716 15-15 15z"/><path d="m256 278.5c-8.284 0-15-6.716-15-15v-89c0-8.284 6.716-15 15-15 8.284 0 15 6.716 15 15v89c0 8.284-6.716 15-15 15z"/></g><path d="m127.5 504.5v-10.358c0-7.285 3.178-14.207 8.701-18.957l47.27-40.642c4.535-3.899 10.318-6.043 16.299-6.043h112.016c5.947 0 11.7 2.12 16.225 5.98l47.714 40.701c5.568 4.75 8.775 11.701 8.775 19.02v10.299z" fill="#ffe07d"/><path d="m384.5 494.2v10.3h-30v-10.3c0-7.32-3.21-14.27-8.78-19.02l-47.71-40.7c-4.52-3.86-10.28-5.98-16.22-5.98h30c5.94 0 11.7 2.12 16.22 5.98l47.71 40.7c5.57 4.75 8.78 11.7 8.78 19.02z" fill="#ffd064"/><path d="m284.5 41.99v33.31c0 3.26-1.59 6.31-4.26 8.19l-21.37 14.99c-1.72 1.21-4.02 1.21-5.74 0l-21.37-14.99c-2.67-1.88-4.26-4.93-4.26-8.19v-33.31c9.12-2.28 18.67-3.49 28.5-3.49s19.38 1.21 28.5 3.49z" fill="#ffe07d"/><path d="m284.5 41.99v12.09c-13.11-7.54-27.81-12.63-43.48-14.63 4.91-.63 9.91-.95 14.98-.95 9.83 0 19.38 1.21 28.5 3.49z" fill="#ffd064"/><path d="m398.5 194.78v48.44c0 8.05-4.82 15.31-12.24 18.43l-26.72 11.25c5.53-3.66 8.96-9.89 8.96-16.68v-74.44c0-6.79-3.43-13.02-8.96-16.68l26.72 11.25c7.42 3.12 12.24 10.38 12.24 18.43z" fill="#e2d6d1"/></g><g><path d="m436.632 389.586c-19.583-19.397-45.501-29.958-73.108-29.672l-4.145.039c-6.826.065-12.38 5.673-12.38 12.5v3.138c0 3.162.149 6.299.43 9.409h-40.429v-30.835c8.76-3.927 17.112-8.877 24.914-14.849 21.247-16.264 36.975-39.314 44.289-64.906.04-.142.067-.283.099-.425l12.871-5.419c9.982-4.203 16.497-13.79 16.799-24.565h2.529c12.407 0 22.5-10.093 22.5-22.5v-5c0-12.407-10.093-22.5-22.5-22.5h-2.529c-.303-10.775-6.818-20.363-16.799-24.565l-8.173-3.442v-9.994c0-48.393-27.643-90.449-67.967-111.212l6.247-11.662c3.771-7.04 3.574-15.332-.528-22.184s-11.319-10.942-19.305-10.942h-86.895c-7.986 0-15.203 4.09-19.305 10.942s-4.3 15.144-.529 22.183l6.248 11.663c-40.323 20.763-67.966 62.819-67.966 111.212v9.994l-8.172 3.441c-9.982 4.203-16.497 13.79-16.799 24.565h-2.529c-12.407 0-22.5 10.093-22.5 22.5v5c0 12.407 10.093 22.5 22.5 22.5h2.529c.303 10.775 6.818 20.363 16.799 24.565l12.906 5.435c.048.282.108.564.189.845 7.384 25.486 23.13 48.43 44.338 64.605 7.75 5.911 16.044 10.815 24.738 14.713v30.837h-40.43c.281-3.11.43-6.247.43-9.409v-3.138c0-6.827-5.554-12.434-12.381-12.5l-4.143-.039c-25.929-.291-50.785 9.227-69.956 26.678-3.063 2.789-3.286 7.532-.498 10.595 2.789 3.063 7.532 3.286 10.595.498 16.364-14.896 37.573-22.95 59.716-22.772l1.666.016v.662c0 23.53-9.207 45.607-25.924 62.166s-38.891 25.529-62.41 25.33l-1.664-.016v-.662c0-13.713 3.079-26.837 9.151-39.007 1.85-3.707.344-8.21-3.362-10.06s-8.211-.344-10.06 3.362c-7.119 14.27-10.729 29.647-10.729 45.705v3.138c0 6.827 5.554 12.434 12.382 12.5 0 0 4.812.044 5.148.044 2.505 0 4.996-.091 7.47-.268v6.677c0 15.164 12.336 27.5 27.5 27.5h252c4.142 0 7.5-3.358 7.5-7.5s-3.358-7.5-7.5-7.5h-21v-52.244l42.357 36.132c3.904 3.33 6.143 8.183 6.143 13.314v10.298c0 4.142 3.358 7.5 7.5 7.5h30c15.164 0 27.5-12.336 27.5-27.5v-6.677c2.474.177 4.965.268 7.47.268.334 0 5.148-.044 5.148-.044h.001c6.827-.065 12.38-5.673 12.38-12.5v-3.138c.001-27.563-10.784-53.426-30.367-72.823zm-20.632-173.086v5c0 4.136-3.364 7.5-7.5 7.5h-2.5v-20h2.5c4.136 0 7.5 3.364 7.5 7.5zm-210.059-190.458c-1.969-6.179.235-9.859 6.611-11.042h86.895c6.376 1.182 8.58 4.863 6.611 11.042l-6.793 12.681c-13.488-4.992-28.063-7.723-43.265-7.723s-29.777 2.731-43.265 7.723zm50.059 65.295-19.936-13.99c-.667-.468-1.064-1.232-1.064-2.046v-27.281c6.8-1.32 13.82-2.02 21-2.02s14.2.7 21 2.02v27.281c0 .814-.397 1.579-1.064 2.046zm-110 64.663c0-48.051 30.973-88.999 74-103.944v23.244c0 5.697 2.784 11.053 7.448 14.325l21.371 14.998c4.787 3.015 9.574 3.015 14.361 0l21.372-14.998c4.664-3.272 7.448-8.627 7.448-14.325v-23.244c43.027 14.945 74 55.892 74 103.944v3.678l-72.165-30.385c-24.044-10.124-51.625-10.124-75.671 0l-72.164 30.385zm-50 65.5v-5c0-4.136 3.364-7.5 7.5-7.5h2.5v20h-2.5c-4.136 0-7.5-3.364-7.5-7.5zm25 21.721v-48.441c0-5.042 3.002-9.564 7.649-11.521l95.335-40.142c10.174-4.284 21.093-6.424 32.015-6.424 10.92 0 21.843 2.142 32.015 6.424l95.336 40.142c4.647 1.957 7.649 6.479 7.649 11.521v48.441c0 5.042-3.002 9.564-7.649 11.521l-95.335 40.142c-20.347 8.566-43.685 8.565-64.03 0l-95.336-40.142c-4.647-1.957-7.649-6.479-7.649-11.521zm33.243 38.572 63.922 26.914c12.022 5.062 24.929 7.593 37.835 7.593s25.813-2.531 37.836-7.593l63.926-26.916c-16.754 40.694-56.996 68.209-101.762 68.209-44.716 0-84.998-27.53-101.757-68.207zm44.257 154.264c.422-.031.844-.057 1.27-.057h48.73v61h-50zm-15 60.943h-48.5v-2.858c0-5.105 2.22-9.941 6.091-13.27l42.409-36.462zm80 0v-61h48.286c.575 0 1.146.035 1.714.091v60.909zm163.5-12.5c0 6.893-5.607 12.5-12.5 12.5h-22.5v-2.799c0-9.53-4.158-18.542-11.408-24.726l-47.714-40.701c-5.876-5.013-13.367-7.774-21.092-7.774h-112.016c-7.771 0-15.296 2.79-21.188 7.856l-47.27 40.642c-7.189 6.181-11.312 15.164-11.312 24.644v2.858h-22.5c-6.893 0-12.5-5.607-12.5-12.5v-8.867c18.618-4.147 35.733-13.451 49.632-27.218 13.66-13.531 23.033-30.209 27.456-48.414h45.412c6.893 0 12.5-5.607 12.5-12.5v-27.744c11.543 3.459 23.625 5.244 36 5.244 12.377 0 24.459-1.784 36-5.242v27.741c0 6.893 5.607 12.5 12.5 12.5h45.411c4.424 18.205 13.796 34.883 27.456 48.414 13.9 13.768 31.014 23.072 49.632 27.219v8.867zm25-21.429s-2.239.02-2.525.02c-23.208 0-45.038-8.978-61.551-25.334-16.717-16.559-25.924-38.636-25.924-62.166v-.662l1.667-.016c23.55-.223 45.693 8.771 62.41 25.33 16.716 16.559 25.923 38.636 25.923 62.166z"/><path d="m191 177c-12.407 0-22.5 10.093-22.5 22.5v39c0 12.407 10.093 22.5 22.5 22.5s22.5-10.093 22.5-22.5v-39c0-12.407-10.093-22.5-22.5-22.5zm7.5 61.5c0 4.136-3.364 7.5-7.5 7.5s-7.5-3.364-7.5-7.5v-39c0-4.136 3.364-7.5 7.5-7.5s7.5 3.364 7.5 7.5z"/><path d="m321 261c12.407 0 22.5-10.093 22.5-22.5v-39c0-12.407-10.093-22.5-22.5-22.5s-22.5 10.093-22.5 22.5v39c0 12.407 10.093 22.5 22.5 22.5zm-7.5-61.5c0-4.136 3.364-7.5 7.5-7.5s7.5 3.364 7.5 7.5v39c0 4.136-3.364 7.5-7.5 7.5s-7.5-3.364-7.5-7.5z"/><path d="m256 286c12.407 0 22.5-10.093 22.5-22.5v-89c0-12.407-10.093-22.5-22.5-22.5s-22.5 10.093-22.5 22.5v89c0 12.407 10.093 22.5 22.5 22.5zm-7.5-111.5c0-4.136 3.364-7.5 7.5-7.5s7.5 3.364 7.5 7.5v89c0 4.136-3.364 7.5-7.5 7.5s-7.5-3.364-7.5-7.5z"/></g></g></svg>